<svg width="6" height="26" viewBox="0 0 6 26" fill="none" xmlns="http://www.w3.org/2000/svg">
<path d="M3.4359 0C3.43367 0.825903 3.43367 0.0884716 3.43367 0.132707C3.43367 4.81725 3.43367 19.504 3.43367 24.1886C3.43367 24.2328 3.43367 24.277 3.43367 24.3213C4.08473 23.6754 4.73356 23.0318 5.3757 22.3948C5.60312 22.6204 5.80602 22.8217 6 23.0141C5.00557 24.0072 4.00446 25.0069 3.01003 26C2.00223 25.0003 0.998885 24.005 0 23.0141C0.19175 22.8261 0.396878 22.627 0.606466 22.4213C1.24192 23.0517 1.89075 23.6953 2.56187 24.3611C2.56187 24.2947 2.56187 24.2527 2.56187 24.2107C2.56187 19.5261 2.56187 4.83937 2.56187 0.154825C2.56187 0.103954 2.56187 1.48511 2.56633 0C2.85619 0 3.14604 0 3.4359 0Z" fill="white"/>
</svg>
