<svg width="41" height="50" viewBox="0 0 41 50" fill="none" xmlns="http://www.w3.org/2000/svg">
<path d="M38.8853 34.507C38.8835 34.544 38.8835 34.581 38.8835 34.618C38.8835 38.5356 38.8835 42.4549 38.8835 46.3725C38.8835 46.4095 38.8835 46.4465 38.8835 46.4835C39.4205 45.9434 39.9555 45.4051 40.4851 44.8724C40.6727 45.0611 40.84 45.2294 41 45.3903C40.1799 46.2208 39.3543 47.0568 38.5341 47.8873C37.703 47.0513 36.8755 46.219 36.0517 45.3903C36.2099 45.2331 36.379 45.0666 36.5519 44.8946C37.0759 45.4218 37.611 45.96 38.1645 46.5167C38.1645 46.4613 38.1645 46.4261 38.1645 46.391C38.1645 42.4734 38.1645 38.5541 38.1645 34.6365C38.1645 34.594 38.1664 34.5496 38.1682 34.507C38.4073 34.507 38.6463 34.507 38.8853 34.507Z" fill="#131313"/>
<path fill-rule="evenodd" clip-rule="evenodd" d="M38.8835 34.618C38.8835 34.581 38.8835 34.544 38.8853 34.507H38.1682C38.1666 34.5435 38.1651 34.5812 38.1646 34.618C38.1646 34.6242 38.1645 34.6304 38.1645 34.6365V46.5167L36.5519 44.8946C36.4595 44.9865 36.3683 45.0768 36.2791 45.165C36.2014 45.2418 36.1254 45.3171 36.0517 45.3903L38.5341 47.8873L41 45.3903L40.4851 44.8724L38.8835 46.4835V34.618Z" fill="#131313"/>
<path d="M8.5181 10.5859H11.5366C12.2161 10.5859 12.7538 10.7568 13.1497 11.0986C13.5521 11.4338 13.7534 11.9202 13.7534 12.5577C13.7534 13.2282 13.5521 13.7376 13.1497 14.0859C12.7472 14.4343 12.2029 14.6085 11.5168 14.6085H9.19107V17.6056H8.5181V10.5859ZM9.19107 11.1577V14.0465H11.3287C11.8499 14.0465 12.2722 13.9315 12.5955 13.7014C12.9188 13.4648 13.0804 13.1 13.0804 12.607C13.0804 12.1207 12.932 11.7592 12.6351 11.5225C12.3382 11.2793 11.9258 11.1577 11.398 11.1577H9.19107Z" fill="#131313"/>
<path d="M15.207 10.5859H17.7603C18.816 10.5859 19.6044 10.8915 20.1256 11.5028C20.6468 12.1075 20.9074 12.9291 20.9074 13.9676C20.9074 15.0324 20.6534 15.9066 20.1454 16.5901C19.6374 17.2671 18.8621 17.6056 17.8197 17.6056H15.207V10.5859ZM15.88 11.1577V17.0338H17.6515C19.3735 17.0338 20.2345 16.0249 20.2345 14.007C20.2345 13.1131 20.02 12.4164 19.5912 11.9169C19.1689 11.4108 18.5586 11.1577 17.7603 11.1577H15.88Z" fill="#131313"/>
<path d="M26.9698 10.5859V11.1577H23.1398V13.6817H26.5442V14.2535H23.1398V17.6056H22.4767V10.5859H26.9698Z" fill="#131313"/>
<path fill-rule="evenodd" clip-rule="evenodd" d="M0 0H38.8793V24.9853H38.2419V0.704225H0.637366V49.2958H27.313V50H0V0Z" fill="#131313"/>
<path fill-rule="evenodd" clip-rule="evenodd" d="M26.8621 25.3521H8.48276V24.6479H26.8621V25.3521Z" fill="#131313"/>
<path fill-rule="evenodd" clip-rule="evenodd" d="M26.8621 30.9859H8.48276V30.2817H26.8621V30.9859Z" fill="#131313"/>
<path fill-rule="evenodd" clip-rule="evenodd" d="M26.8621 36.6197H8.48276V35.9155H26.8621V36.6197Z" fill="#131313"/>
<path fill-rule="evenodd" clip-rule="evenodd" d="M41 50H36.0517V49.2958H41V50Z" fill="#131313"/>
</svg>
