<svg width="11" height="20" viewBox="0 0 11 20" fill="none" xmlns="http://www.w3.org/2000/svg">
<path d="M6.90757 20C5.61002 20 4.37607 20 3.09759 20C3.09759 17.0284 3.09759 14.0628 3.09759 11.0734C2.0481 11.0734 1.03677 11.0734 0 11.0734C0 9.87643 0 8.70924 0 7.50632C1.02405 7.50632 2.0481 7.50632 3.09759 7.50632C3.09759 6.93464 3.07851 6.39869 3.10396 5.86869C3.14212 5.01712 3.10396 4.15364 3.26933 3.31993C3.68277 1.26544 5.23474 0.157804 7.38461 0.0208382C8.46591 -0.0446672 9.55993 0.0625235 10.6667 0.0922987C10.6667 1.19398 10.6667 2.23611 10.6667 3.32589C10.1578 3.32589 9.65534 3.31398 9.15285 3.33184C8.72033 3.34971 8.28145 3.36757 7.86802 3.45094C7.34009 3.55813 6.99026 3.92735 6.97118 4.41566C6.92029 5.43397 6.95846 6.45228 6.95846 7.50632C8.05883 7.50632 9.18465 7.50632 10.355 7.50632C10.196 8.70924 10.037 9.87643 9.87796 11.0674C8.89207 11.0674 7.9189 11.0674 6.90757 11.0674C6.90757 14.0509 6.90757 17.0106 6.90757 20Z" fill="#131313"/>
</svg>
