<svg width="20" height="20" viewBox="0 0 20 20" fill="none" xmlns="http://www.w3.org/2000/svg">
<path d="M19.9515 5.87868C19.8739 4.26894 19.5051 2.85314 18.3408 1.68947C17.1764 0.525805 15.7404 0.157311 14.1491 0.0797328C12.7713 -0.0172395 11.3935 0.00215494 10.0156 0.00215494C8.63781 0.00215494 7.25999 -0.0172395 5.88216 0.0603383C4.27147 0.137916 2.85483 0.506411 1.69047 1.68947C0.526117 2.85314 0.157404 4.28833 0.0797801 5.87868C-0.0172497 7.25568 0.00215622 8.63269 0.00215622 10.0097C0.00215622 11.3867 -0.0172497 12.7637 0.0603741 14.1407C0.137998 15.7505 0.506711 17.1663 1.67107 18.3299C2.83543 19.4936 4.27147 19.8621 5.86276 19.9397C7.24058 20.0172 8.6184 19.9978 9.99623 19.9978C11.3741 19.9978 12.7519 20.0172 14.1297 19.9397C15.7404 19.8621 17.157 19.4936 18.3214 18.3299C19.4857 17.1663 19.8545 15.7311 19.9321 14.1407C20.0097 12.7637 19.9903 11.3867 19.9903 10.0097C19.9903 8.63269 20.0291 7.25568 19.9515 5.87868ZM17.8168 15.9056C17.6422 16.3711 17.4093 16.7008 17.06 17.0499C16.7107 17.399 16.3614 17.6317 15.915 17.8063C14.5954 18.3299 11.4711 18.2136 10.0156 18.2136C8.56019 18.2136 5.43583 18.3299 4.11622 17.8063C3.65048 17.6317 3.32058 17.399 2.97127 17.0499C2.62196 16.7008 2.38909 16.3517 2.21444 15.9056C1.69047 14.5868 1.80691 11.4643 1.80691 10.0097C1.80691 8.55511 1.69047 5.4326 2.21444 4.11378C2.38909 3.64831 2.62196 3.31861 2.97127 2.96951C3.32058 2.62041 3.66988 2.38767 4.11622 2.21312C5.43583 1.68947 8.56019 1.80584 10.0156 1.80584C11.4711 1.80584 14.5954 1.68947 15.915 2.21312C16.3808 2.38767 16.7107 2.62041 17.06 2.96951C17.4093 3.31861 17.6422 3.66771 17.8168 4.11378C18.3408 5.4326 18.2244 8.55511 18.2244 10.0097C18.2244 11.4643 18.3408 14.5868 17.8168 15.9056Z" fill="#131313"/>
<path d="M15.3523 3.47376C14.6925 3.47376 14.1491 4.01681 14.1491 4.67622C14.1491 5.33563 14.6925 5.87868 15.3523 5.87868C16.0121 5.87868 16.5554 5.33563 16.5554 4.67622C16.5554 3.99741 16.0315 3.47376 15.3523 3.47376Z" fill="#131313"/>
<path d="M10.0156 4.87016C7.18236 4.87016 4.87305 7.15871 4.87305 10.0097C4.87305 12.8607 7.16296 15.1492 10.0156 15.1492C12.8683 15.1492 15.1582 12.8607 15.1582 10.0097C15.1582 7.15871 12.8489 4.87016 10.0156 4.87016ZM10.0156 13.3455C8.17207 13.3455 6.67781 11.8522 6.67781 10.0097C6.67781 8.16722 8.17207 6.67385 10.0156 6.67385C11.8592 6.67385 13.3535 8.16722 13.3535 10.0097C13.3535 11.8522 11.8592 13.3455 10.0156 13.3455Z" fill="#131313"/>
</svg>
