<svg width="20" height="20" viewBox="0 0 20 20" fill="none" xmlns="http://www.w3.org/2000/svg">
<path d="M15.0175 14.5022C16.3362 13.0699 17.1397 11.1572 17.1397 9.06114C17.131 4.61572 13.5153 1 9.06987 1C4.62445 1 1 4.61572 1 9.06114C1 13.5065 4.61572 17.1223 9.06114 17.1223C11.1572 17.1223 13.0699 16.3188 14.5022 15L18.5022 19L19.0087 18.4935L15.0175 14.5022ZM9.06987 16.4061C5.01747 16.4061 1.71616 13.1135 1.71616 9.06114C1.71616 5.00873 5.01747 1.70742 9.06987 1.70742C13.1223 1.70742 16.4148 5 16.4148 9.0524C16.4148 13.1048 13.1223 16.4061 9.06987 16.4061Z" fill="#131313"/>
<path d="M8.71179 5.97817V8.70306H5.9869V9.41921H8.71179V12.1441H9.42795V9.41921H12.1528V8.70306H9.41921L9.42795 5.97817H8.71179Z" fill="#131313"/>
<path d="M15.0175 14.5022C16.3362 13.0699 17.1397 11.1572 17.1397 9.06114C17.131 4.61572 13.5153 1 9.06987 1C4.62445 1 1 4.61572 1 9.06114C1 13.5065 4.61572 17.1223 9.06114 17.1223C11.1572 17.1223 13.0699 16.3188 14.5022 15L18.5022 19L19.0087 18.4935L15.0175 14.5022ZM9.06987 16.4061C5.01747 16.4061 1.71616 13.1135 1.71616 9.06114C1.71616 5.00873 5.01747 1.70742 9.06987 1.70742C13.1223 1.70742 16.4148 5 16.4148 9.0524C16.4148 13.1048 13.1223 16.4061 9.06987 16.4061Z" stroke="#131313" stroke-width="0.5"/>
<path d="M8.71179 5.97817V8.70306H5.9869V9.41921H8.71179V12.1441H9.42795V9.41921H12.1528V8.70306H9.41921L9.42795 5.97817H8.71179Z" stroke="#131313" stroke-width="0.5"/>
</svg>
