<svg width="20" height="20" viewBox="0 0 20 20" fill="none" xmlns="http://www.w3.org/2000/svg">
<path d="M15.0107 14.5022C16.3288 13.0699 17.1319 11.1572 17.1319 9.06114C17.1232 4.61572 13.5092 1 9.06596 1C4.6227 1 1 4.61572 1 9.06114C1 13.5065 4.61397 17.1223 9.05723 17.1223C11.1523 17.1223 13.064 16.3188 14.4956 15L18.4937 19L19 18.4935L15.0107 14.5022ZM9.06596 16.4061C5.01552 16.4061 1.71581 13.1135 1.71581 9.06114C1.71581 5.00873 5.01552 1.70742 9.06596 1.70742C13.1164 1.70742 16.4074 5 16.4074 9.0524C16.4074 13.1048 13.1164 16.4061 9.06596 16.4061Z" fill="white" stroke="white" stroke-width="0.5"/>
</svg>
