<svg width="15" height="20" viewBox="0 0 15 20" fill="none" xmlns="http://www.w3.org/2000/svg">
<path d="M5.27534 8.66636C5.69302 9.55566 5.68483 10.4364 5.26715 11.33C6.90919 12.5656 8.54714 13.7927 10.1974 15.0326C10.914 14.3528 11.7452 14.0278 12.7116 14.2074C13.3873 14.3314 13.9401 14.7033 14.3782 15.2549C15.2136 16.3067 15.1931 17.9185 14.3373 18.9575C13.4077 20.0819 11.95 20.3256 10.7297 19.5475C9.59133 18.8206 9.04262 17.3157 9.71008 15.7594C8.07213 14.528 6.43009 13.2924 4.77986 12.0483C4.14516 12.6981 3.38761 12.9889 2.50721 12.8863C1.73328 12.7965 1.09448 12.4331 0.6031 11.796C-0.31415 10.6117 -0.174925 8.85876 0.951163 7.80271C1.91346 6.90058 3.54731 6.70819 4.76758 7.9267C4.80443 7.90532 4.84538 7.88822 4.88223 7.85829C6.43828 6.69109 7.99433 5.5196 9.55038 4.3524C9.66913 4.26261 9.70189 4.19848 9.63637 4.04456C8.91568 2.33437 10.0131 0.290686 11.7821 0.029881C13.547 -0.226648 15.0825 1.20136 14.9966 3.05265C14.9269 4.56617 13.7394 5.78896 12.3226 5.81461C11.5569 5.82744 10.8894 5.58374 10.3161 5.05358C10.2916 5.02792 10.2629 5.00655 10.2383 4.98517C10.226 4.97662 10.2137 4.97234 10.1851 4.96379C8.55533 6.19941 6.91738 7.43074 5.27534 8.66636ZM14.1489 2.94149C14.153 1.83414 13.289 0.906355 12.2448 0.897804C11.176 0.884978 10.2793 1.79566 10.2752 2.89018C10.267 4.04884 11.131 4.95524 12.2407 4.95524C13.2726 4.95096 14.1448 4.03173 14.1489 2.94149ZM14.1489 17.1062C14.1571 16.0159 13.289 15.071 12.2694 15.0539C11.1924 15.0368 10.2834 15.9518 10.2752 17.0506C10.2711 18.205 11.1146 19.1028 12.2161 19.1114C13.2685 19.1199 14.1407 18.2135 14.1489 17.1062ZM2.81433 12.0226C3.85852 12.0269 4.72253 11.1248 4.73072 10.026C4.73482 8.92289 3.85852 7.96946 2.8389 7.96518C1.721 7.96091 0.869266 8.86731 0.861076 10.0687C0.852887 11.129 1.73738 12.0141 2.81433 12.0226Z" fill="black"/>
</svg>
