<svg width="19" height="16" viewBox="0 0 19 16" fill="none" xmlns="http://www.w3.org/2000/svg">
<path d="M0 7.58037C6.09137 5.04095 12.1178 2.53401 18.1983 0C17.0071 5.34958 15.8267 10.6504 14.6409 16C12.9462 14.6518 11.2839 13.3252 9.64332 12.0257C8.66328 12.9949 7.68866 13.9533 6.67614 14.9496C6.61658 14.8142 6.57327 14.733 6.54078 14.6464C5.85854 12.9462 5.1709 11.2514 4.49408 9.54585C4.41827 9.35635 4.3154 9.24264 4.12047 9.17225C2.76684 8.65787 1.42403 8.13266 0 7.58037ZM12.9083 4.68359C12.8975 4.67276 12.8866 4.66193 12.8758 4.6511C10.4122 6.12386 7.94315 7.60203 5.46328 9.08562C5.8802 10.136 6.29171 11.1756 6.7357 12.2856C6.96853 11.4247 7.16887 10.6558 7.38545 9.88697C7.41793 9.77327 7.48291 9.64873 7.56954 9.56751C8.41963 8.7824 9.27513 8.00812 10.1252 7.23384C11.0511 6.38376 11.977 5.53367 12.9083 4.68359Z" fill="#131313"/>
</svg>
