<svg width="15" height="7" viewBox="0 0 15 7" fill="none" xmlns="http://www.w3.org/2000/svg">
<path d="M13.8157 2.38902C12.3036 4.03385 12.1407 3.88173 13.3853 4.83249C14.5834 5.74523 14.8393 6.18258 14.8742 6.23963C14.8742 6.23963 15.3743 6.9527 14.3159 6.96221L12.3152 6.99073C11.8848 7.05729 11.3149 6.74353 11.3149 6.74353C10.5704 6.31569 9.86089 5.23182 9.3142 5.36492C9.3142 5.36492 8.75588 5.50754 8.76751 6.49634C8.77914 6.7055 8.65119 6.8196 8.65119 6.8196C8.65119 6.8196 8.51161 6.94319 8.23245 6.96221H7.3368C5.3594 7.06679 3.61464 5.57409 3.61464 5.57409C3.61464 5.57409 1.71866 3.9673 0.0436917 0.753704C-0.0609941 0.544535 0.0553234 0.439951 0.0553234 0.439951C0.0553234 0.439951 0.171641 0.316351 0.49733 0.316351L2.63757 0.306844C2.83531 0.335367 2.98653 0.420936 2.98653 0.420936C2.98653 0.420936 3.11448 0.487489 3.17263 0.620597C3.52159 1.33367 3.97523 1.9897 3.97523 1.9897C4.75455 3.30176 5.28961 3.52994 5.59204 3.39684C5.59204 3.39684 5.98752 3.19717 5.9061 1.60939C5.8712 1.03893 5.68509 0.772719 5.68509 0.772719C5.51062 0.573058 5.1733 0.516012 5.02208 0.496997C4.90577 0.487489 5.10351 0.249798 5.3594 0.154721C5.73162 0.00259833 6.40626 -0.00690934 7.22048 0.00259833C7.8486 0.012106 8.03471 0.040629 8.27897 0.0881673C9.02341 0.230782 8.76751 0.801242 8.76751 2.15133C8.76751 2.58868 8.66282 3.18767 9.04667 3.38733C9.20952 3.4729 9.61663 3.39684 10.617 2.00872C10.617 2.00872 11.0822 1.34318 11.4544 0.573058C11.5126 0.430443 11.6522 0.373397 11.6522 0.373397C11.6522 0.373397 11.7801 0.316351 11.9546 0.335367L14.1879 0.325859C14.8625 0.259305 14.9789 0.506505 14.9789 0.506505C15.0952 0.772719 14.7346 1.38121 13.8157 2.38902Z" fill="#C4C4C4"/>
</svg>
